<?xml version="1.0" encoding="UTF-8"?>
<svg id="Layer_2" data-name="Layer 2" xmlns="http://www.w3.org/2000/svg" viewBox="0 0 30.25 30.25">
  <defs>
    <style>
      .cls-1 {
        fill: #fafcff;
        stroke: #d2d2ff;
        stroke-miterlimit: 10;
        stroke-width: .25px;
      }

      .cls-2 {
        fill: var(--brand-primary, #197dfa);
      }

      .cls-3 {
        fill: var(--brand-accent, #ff0096);
      }
    </style>
  </defs>
  <g id="ias">
    <g>
      <rect class="cls-1" x=".12" y=".12" width="30" height="30" rx="2" ry="2"/>
      <g>
        <path class="cls-2" d="M22.72,20.53c-.07-1.75-.35-3.23-1.52-4.71-.22-.28-.52-.65-.87-.96-.09-.08-.19-.16-.28-.24-.1-.08-.19-.15-.29-.22-.1-.07-.2-.14-.31-.21-.1-.07-.21-.13-.31-.19-.11-.06-.22-.12-.33-.18-.11-.06-.22-.11-.33-.16-.11-.05-.23-.1-.34-.15-.12-.05-.23-.09-.35-.13l-.12-.04c.15-.14.3-.28.43-.45.66-.83.94-1.9.78-3.01-.14-1-.73-1.95-1.57-2.54-.7-.5-1.6-.75-2.54-.7h-.02c-1.15.11-2.04.55-2.72,1.34-.04.05-.08.1-.12.15-.04.05-.08.1-.12.16-.04.05-.07.11-.11.16-.03.06-.07.11-.1.16-.03.06-.06.12-.09.18-.03.06-.06.12-.08.17-.03.06-.05.12-.07.18-.02.06-.05.12-.07.19l-.05.18c-.02.06-.03.13-.04.19l-.06.38c0,.06-.01.13-.02.19,0,.07,0,.13,0,.2v.19c0,.07.01.13.02.2,0,.07.02.13.03.2l.04.19c.01.06.03.13.05.19.02.06.04.13.06.19.02.06.04.12.07.19.02.06.05.12.07.18.03.06.06.12.08.18.03.06.06.12.1.18l.1.17c.04.06.07.11.11.16.04.05.08.11.12.16l.13.15s.09.1.14.15c.05.05.09.09.14.14.05.05.1.09.15.13.03.03.07.06.1.08-.02-.01-.04-.02-.06-.03l-.15-.08-.16.07c-1.93.83-3.38,1.83-4.23,3.98-.37.94-.53,2.11-.43,3.2v.14s.12.09.12.09c1.29,1.18,2.88,2.04,4.47,2.42,1,.24,2.01.36,3.01.36,2.07,0,4.08-.5,5.77-1.48.55-.32,1.25-.77,1.72-1.38l.08-.1v-.13ZM12.23,11.98s-.05-.09-.08-.14c-.02-.05-.05-.09-.07-.14l-.11-.3s-.03-.1-.05-.15c-.01-.05-.03-.1-.04-.15l-.03-.16c0-.05-.02-.1-.02-.15,0-.05,0-.1-.01-.15v-.16c0-.05,0-.1,0-.16,0-.05,0-.1.01-.15l.05-.31s.02-.1.03-.15l.04-.15s.03-.1.05-.15c.02-.05.04-.1.06-.15l.07-.14s.05-.09.07-.14l.36-.52c.55-.64,1.28-1,2.24-1.09.77-.03,1.51.17,2.08.57.68.48,1.15,1.25,1.27,2.06.13.91-.09,1.78-.63,2.46-.55.69-1.24,1.06-2.19,1.19-.92.01-1.64-.2-2.26-.67l-.25-.21-.6-.76ZM20.57,21.52c-2.35,1.36-5.35,1.74-8.25,1.05-1.41-.34-2.88-1.12-4.05-2.16-.07-.94.07-1.92.39-2.72.73-1.86,2.01-2.76,3.69-3.51.83.43,1.57.75,2.6.78,1.17.04,2.07-.24,2.79-.82.04.02.08.03.12.05.1.04.21.09.31.13.1.05.2.1.3.15.1.05.2.11.29.16.1.06.19.12.28.18.09.06.19.12.28.19.09.07.18.13.27.2.09.07.17.14.25.22.31.27.57.59.78.87,1.01,1.29,1.28,2.6,1.36,4.16-.39.46-.96.82-1.42,1.09Z"/>
        <path class="cls-3" d="M14.29,14.99c.58-.01,1.16,0,1.74.02-.12.27-.27.64-.47.85-.07.02-.13.03-.2.06-.05.02-.04,0-.06.04l.03.03c.08.02.14.03.22.07.19.31.78,3.85.89,4.42l-.84.98c-.15.18-.3.34-.46.51-.46-.44-.91-.95-1.3-1.44.16-1.05.37-2.09.56-3.13.05-.29.14-.99.22-1.23.02-.05.05-.09.09-.13.01-.01.03-.02.04-.03l-.04-.07.05.05c-.13-.34-.38-.6-.47-.97,0-.01,0-.02,0-.03Z"/>
      </g>
    </g>
  </g>
</svg>
