<?xml version="1.0" encoding="UTF-8"?>
<svg id="Layer_2" data-name="Layer 2" xmlns="http://www.w3.org/2000/svg" viewBox="0 0 18.5 18.5">
  <defs>
    <style>
      .cls-1 {
        fill: #fff;
        stroke: var(--brand-primary, #0f7c94);
        stroke-miterlimit: 10;
        stroke-width: .5px;
      }

      .cls-2 {
        fill: var(--brand-primary, #0f7c94);
      }
    </style>
  </defs>
  <g id="ias">
    <g>
      <rect class="cls-1" x=".25" y=".25" width="18" height="18" rx="1" ry="1"/>
      <path class="cls-2" d="M8.15,12.85l-3.94-3.6,3.94-3.6.7.64-1.28,1.16c-.27.24-.58.5-.93.77s-.68.51-.99.73c.23-.04.46-.08.69-.11s.46-.05.7-.05h7.24v.92h-7.24c-.23,0-.47-.02-.7-.05s-.46-.07-.69-.11c.3.21.63.46.99.73s.67.53.93.77l1.28,1.16-.7.64Z"/>
    </g>
  </g>
</svg>