<?xml version="1.0" encoding="UTF-8"?>
<svg id="Layer_2" data-name="Layer 2" xmlns="http://www.w3.org/2000/svg" viewBox="0 0 15.26 15.25">
  <defs>
    <style>
      .cls-1 {
        fill: var(--brand-accent, #ff0096);
      }
    </style>
  </defs>
  <g id="Layer_4" data-name="Layer 4">
    <g>
      <path class="cls-1" d="M14.02,1.54h-.79v.88c0,.26-.11.5-.29.69-.19.18-.44.28-.71.28s-.52-.1-.71-.28c-.19-.18-.29-.43-.29-.69v-.88h-2.62v.88c0,.26-.11.5-.29.69-.19.18-.44.28-.71.28s-.52-.1-.71-.28c-.19-.18-.29-.43-.29-.69v-.88h-2.62v.88c0,.26-.11.5-.29.69-.19.18-.44.28-.71.28s-.52-.1-.71-.28c-.19-.18-.29-.43-.29-.69v-.88h-.79c-.67,0-1.2.52-1.2,1.16v11.38c0,.64.54,1.16,1.2,1.16h12.85c.67,0,1.2-.52,1.2-1.16V2.71c0-.64-.54-1.16-1.2-1.16h-.04ZM14.22,13.97c0,.18-.16.33-.34.33H1.3c-.18,0-.34-.15-.34-.33V4.7h13.26v9.27Z"/>
      <path class="cls-1" d="M2.28,2.42c0,.37.31.67.69.67s.69-.3.69-.67V.67c0-.37-.31-.67-.69-.67s-.69.3-.69.67v1.75Z"/>
      <path class="cls-1" d="M6.9,2.42c0,.37.31.67.69.67s.69-.3.69-.67V.67c0-.37-.31-.67-.69-.67s-.69.3-.69.67v1.75Z"/>
      <path class="cls-1" d="M11.53,2.42c0,.37.31.67.69.67s.69-.3.69-.67V.67c0-.37-.31-.67-.69-.67s-.69.3-.69.67v1.75Z"/>
    </g>
  </g>
</svg>