<?xml version="1.0" encoding="UTF-8"?>
<svg id="Layer_2" data-name="Layer 2" xmlns="http://www.w3.org/2000/svg" viewBox="0 0 226.06 95.36">
  <defs>
    <style>
      .cls-1 {
        fill: #898989;
      }

      .cls-2 {
        fill: #fff;
        stroke: #898989;
        stroke-miterlimit: 10;
        stroke-width: 2px;
      }
    </style>
  </defs>
  <g id="ias">
    <g>
      <rect class="cls-2" x="1" y="1" width="224.06" height="93.36" rx="5" ry="5"/>
      <g>
        <path class="cls-1" d="M48.58,36.07c1.64-.97,3.47-1.46,5.53-1.46,1.46,0,2.88.26,4.18.78s2.43,1.27,3.32,2.28,1.53,2.24,1.87,3.73h4.33c-.41-2.24-1.23-4.11-2.54-5.71-1.31-1.61-2.91-2.8-4.82-3.62-1.9-.86-4.03-1.27-6.31-1.27-2.91,0-5.49.67-7.77,2.02-2.28,1.34-4.07,3.25-5.34,5.71-1.31,2.46-1.94,5.41-1.94,8.85s.63,6.35,1.94,8.81c1.31,2.46,3.1,4.37,5.34,5.71,2.24,1.34,4.85,2.02,7.77,2.02,2.32,0,4.44-.41,6.39-1.27,1.9-.86,3.51-2.05,4.82-3.66,1.27-1.61,2.13-3.47,2.5-5.64h-4.33c-.3,1.46-.93,2.69-1.87,3.7s-2.02,1.79-3.32,2.32-2.69.78-4.18.78c-2.02,0-3.85-.49-5.49-1.46s-2.95-2.43-3.92-4.29c-.97-1.9-1.46-4.22-1.46-6.95s.49-5.08,1.42-6.98c.97-1.9,2.24-3.32,3.88-4.33,0,0,0-.07,0-.07Z"/>
        <path class="cls-1" d="M89.43,40.43c-1.01-.56-2.05-.97-3.14-1.16s-2.05-.3-2.91-.3c-1.31,0-2.61.19-3.96.52-1.34.34-2.58.93-3.66,1.76s-1.98,1.98-2.65,3.44l3.96,1.23c.41-.86,1.12-1.64,2.13-2.43,1.05-.75,2.46-1.12,4.29-1.12s3.1.41,4,1.23,1.34,1.98,1.34,3.51v.15c0,.6-.22,1.01-.71,1.27s-1.16.41-2.13.52c-.97.11-2.2.26-3.73.45-1.19.15-2.35.34-3.55.6-1.16.26-2.24.63-3.21,1.12s-1.72,1.19-2.32,2.05-.86,1.98-.86,3.4c0,1.57.37,2.95,1.16,4.03.78,1.12,1.83,1.94,3.14,2.54,1.31.56,2.76.86,4.41.86,1.46,0,2.69-.19,3.7-.6s1.83-.9,2.5-1.49c.63-.6,1.08-1.19,1.38-1.76h.26v3.29h4.03v-15.95c0-1.9-.34-3.4-1.01-4.52-.67-1.12-1.49-1.98-2.5-2.58v-.07h.04ZM88.83,54.74c0,.97-.26,1.94-.82,2.84s-1.34,1.64-2.39,2.2-2.32.86-3.85.86-2.76-.34-3.77-.97-1.49-1.61-1.49-2.84c0-.93.26-1.64.78-2.2.52-.52,1.19-.93,2.05-1.23s1.79-.49,2.76-.6c.41-.04.93-.11,1.61-.19s1.38-.19,2.09-.3c.71-.11,1.38-.26,1.94-.41s.93-.34,1.08-.52v3.36h0Z"/>
        <path class="cls-1" d="M111.91,38.98c-1.72,0-3.25.37-4.56,1.08-1.34.75-2.39,1.98-3.21,3.7v-4.48h-3.96v24.2h4.11v-14.49c0-2.05.6-3.66,1.83-4.82,1.23-1.12,2.76-1.72,4.59-1.72s3.17.52,4.22,1.57c1.05,1.05,1.53,2.5,1.53,4.37v15.05h4.11v-15.39c0-3.06-.78-5.34-2.35-6.87s-3.66-2.28-6.24-2.28l-.07.07Z"/>
        <path class="cls-1" d="M142.34,59.29c-1.12.82-2.54,1.23-4.26,1.23s-3.1-.41-4.18-1.27-1.9-1.94-2.43-3.29c-.52-1.38-.78-2.84-.78-4.44s.26-3.1.78-4.48c.52-1.38,1.34-2.46,2.43-3.32,1.08-.86,2.5-1.27,4.18-1.27s3.06.41,4.15,1.19c1.08.78,1.83,1.83,2.2,3.06l3.96-1.05c-.71-2.09-1.98-3.73-3.85-4.93-1.87-1.16-4.03-1.76-6.5-1.76-2.32,0-4.33.52-6.09,1.57s-3.1,2.5-4.07,4.37c-.97,1.87-1.46,4.11-1.46,6.61s.49,4.67,1.46,6.54c.97,1.87,2.32,3.32,4.07,4.37s3.77,1.57,6.09,1.57c2.5,0,4.67-.6,6.57-1.83,1.87-1.23,3.17-2.91,3.85-5.04l-3.92-1.05c-.37,1.31-1.12,2.39-2.24,3.21h.04Z"/>
        <path class="cls-1" d="M172.18,41.67c-1.08-.93-2.28-1.64-3.58-2.05s-2.65-.63-4-.63c-2.32,0-4.33.52-6.05,1.61-1.72,1.08-3.06,2.54-4,4.44-.93,1.9-1.42,4.07-1.42,6.57s.49,4.67,1.46,6.54c.97,1.87,2.35,3.32,4.11,4.37,1.79,1.05,3.92,1.57,6.39,1.57,2.61,0,4.82-.56,6.61-1.72,1.79-1.12,2.99-2.61,3.58-4.44l-3.96-1.05c-.49,1.23-1.23,2.17-2.35,2.8-1.08.63-2.39.93-3.88.93-2.28,0-4.11-.67-5.53-2.02-1.42-1.34-2.17-3.29-2.28-5.83h18.41v-1.61c0-2.24-.34-4.15-.97-5.68s-1.49-2.8-2.58-3.73v-.07h.04ZM157.32,49.4c.07-1.23.41-2.39,1.01-3.44s1.46-1.9,2.5-2.54,2.32-.97,3.77-.97c2.09,0,3.73.63,4.89,1.94,1.16,1.31,1.83,2.95,2.05,5.04h-14.23v-.04Z"/>
        <rect class="cls-1" x="181.59" y="31.21" width="4.11" height="32.26"/>
      </g>
    </g>
  </g>
</svg>