<?xml version="1.0" encoding="UTF-8"?>
<svg id="Layer_2" data-name="Layer 2" xmlns="http://www.w3.org/2000/svg" viewBox="0 0 28.15 28.15">
  <defs>
    <style>
      .cls-1 {
        fill: #fafcff;
        stroke: #d2d2ff;
        stroke-miterlimit: 10;
        stroke-width: .15px;
      }

      .cls-2 {
        fill: var(--brand-primary, #197dfa);
      }
    </style>
  </defs>
  <g id="Menu">
    <g>
      <rect class="cls-1" x=".07" y=".07" width="28" height="28" rx="1" ry="1"/>
      <g>
        <path class="cls-2" d="M17.17,12.26l-.25.66h-.98c-.07.53-.36.96-.85,1.3s-1.22.51-2.18.51h-.32l3.34,3.17v.06h-1.09l-3.55-3.37-.02-.48h1.56c.62,0,1.13-.1,1.51-.3s.61-.49.68-.88h-3.81l.24-.66h3.57c-.09-.36-.31-.64-.67-.85s-.83-.31-1.42-.31h-1.71l.24-.65h5.76l-.24.66h-1.71c.37.3.6.68.69,1.15h1.24Z"/>
        <path class="cls-2" d="M6.18,15.5c-.14-.95-.45-2.44-.9-3.5l.16-.11.75.76c.38-1.39.95-2.59,1.68-3.56.81-1.06,1.84-1.87,3.07-2.41,1.04-.47,2.24-.7,3.69-.71h.25c1.17,0,2.37.21,3.59.46l-.03.2c-.85-.12-1.85-.24-2.79-.24-.32,0-.64.01-.96.05-1.36.1-2.5.39-3.47.91-1.11.58-2.03,1.4-2.74,2.44-.62.92-1.09,2.04-1.38,3.32l1.11.04-.21.17c-.63.5-1.26,1.48-1.64,2.22l-.14.28-.04-.31Z"/>
        <path class="cls-2" d="M13.26,22.18c-1.17,0-2.37-.22-3.59-.46l.03-.2c.85.12,1.84.24,2.79.24.32,0,.64-.01.95-.05,1.36-.1,2.5-.39,3.47-.91,1.11-.58,2.03-1.4,2.74-2.44.62-.92,1.09-2.04,1.38-3.32l-1.11-.04.21-.17c.63-.5,1.26-1.48,1.65-2.22l.14-.28.04.31c.14.95.45,2.44.9,3.5l-.16.11-.75-.76c-.38,1.39-.95,2.59-1.68,3.56-.81,1.06-1.84,1.87-3.07,2.41-1.04.46-2.24.7-3.69.71h-.25Z"/>
      </g>
    </g>
  </g>
</svg>