<?xml version="1.0" encoding="UTF-8"?>
<svg id="Layer_2" data-name="Layer 2" xmlns="http://www.w3.org/2000/svg" viewBox="0 0 28.15 28.15">
  <defs>
    <style>
      .cls-1 {
        fill: #fafcff;
        stroke: #d2d2ff;
        stroke-width: .15px;
      }

      .cls-1, .cls-2 {
        stroke-miterlimit: 10;
      }

      .cls-3 {
        stroke-linecap: round;
        stroke-linejoin: round;
        stroke-width: .7px;
      }

      .cls-3, .cls-2 {
        fill: none;
        stroke: var(--brand-primary, #197dfa);
      }

      .cls-4 {
        fill: var(--brand-primary, #197dfa);
      }

      .cls-2 {
        stroke-width: .8px;
      }

      .cls-5 {
        fill: #b8d1e6;
      }
    </style>
  </defs>
  <g id="Menu">
    <g>
      <rect class="cls-1" x=".07" y=".07" width="28" height="28" rx="1" ry="1"/>
      <g>
        <path class="cls-2" d="M24.7,20.12c0,.2-.07.39-.21.54-.14.15-.32.22-.5.22H4.15c-.18,0-.36-.07-.5-.22-.14-.15-.21-.35-.21-.54V6.34c0-.2.07-.39.21-.54.14-.15.32-.22.5-.22h19.84c.18,0,.36.08.5.22.14.15.21.34.21.54v13.78Z"/>
        <path class="cls-5" d="M16.5,20.96s-.01.08-.04.11c-.03.03-.06.04-.1.04h-4.56s-.07-.01-.1-.04c-.03-.03-.04-.07-.04-.11v-.08h4.84v.08h0Z"/>
        <path class="cls-4" d="M20.37,9.55c-.59,0-1.07.49-1.07,1.1,0,.22.06.41.16.58l-3.59,3.67h0c-.16-.11-.36-.17-.57-.17s-.41.06-.57.17h0s0,0,0,0l-2.27-2.32c.1-.17.16-.37.16-.58,0-.61-.48-1.1-1.07-1.1s-1.08.49-1.08,1.1c0,.21.06.41.16.58l-2.27,2.32c-.16-.11-.36-.17-.57-.17-.59,0-1.08.49-1.08,1.1s.48,1.1,1.08,1.1,1.08-.49,1.08-1.1c0-.21-.06-.41-.17-.58,0,0,0,0,0,0l2.28-2.32s0,0,0,0c.16.11.36.17.57.17s.41-.06.57-.17c0,0,0,0,0,0h0l2.27,2.32h0s0,0,0,0c-.11.17-.17.37-.17.58,0,.6.48,1.1,1.08,1.1s1.08-.49,1.08-1.1c0-.21-.06-.41-.17-.58l3.59-3.67c.16.11.36.17.57.17.59,0,1.08-.49,1.08-1.1,0-.61-.48-1.1-1.08-1.1ZM7.79,16.43c-.33,0-.59-.27-.59-.6s.27-.61.59-.61c.07,0,.14.01.21.04h0s0,0,0,0c.16.06.28.19.34.35h0c.03.07.04.14.04.22,0,.33-.27.6-.59.6ZM11.54,12.6c-.08,0-.15-.01-.21-.04,0,0,0,0,0,0h0s-.08-.05-.12-.08c-.1-.07-.18-.16-.22-.27-.03-.07-.04-.14-.04-.21,0-.34.26-.61.59-.61s.59.27.59.61c0,.08-.01.15-.04.21h0s0,0,0,0c-.06.16-.18.29-.34.35h0c-.06.03-.14.04-.21.04ZM15.3,16.43c-.33,0-.59-.27-.59-.6,0-.08.01-.15.04-.22.06-.16.19-.29.35-.35.07-.03.14-.04.21-.04s.15.01.21.04c0,0,0,0,0,0h0c.16.06.28.18.34.35h0c.02.07.04.14.04.22,0,.33-.27.6-.59.6ZM20.37,11.25c-.07,0-.15-.01-.21-.04h0s-.07-.05-.1-.07c-.1-.07-.19-.16-.23-.28-.03-.07-.04-.14-.04-.22,0-.33.27-.61.59-.61s.59.27.59.61c0,.34-.27.61-.59.61Z"/>
        <line class="cls-3" x1="3.45" y1="22.57" x2="24.7" y2="22.57"/>
      </g>
    </g>
  </g>
</svg>