<?xml version="1.0" encoding="UTF-8"?>
<svg id="Layer_2" data-name="Layer 2" xmlns="http://www.w3.org/2000/svg" viewBox="0 0 9.99 11.39">
  <defs>
    <style>
      .cls-1 {
        fill: #ff3278;
      }
    </style>
  </defs>
  <g id="ias">
    <g id="module_header" data-name="module header">
      <g>
        <path class="cls-1" d="M.41,1.93h9.18c.22,0,.41.18.41.41h0c0,.22-.18.41-.41.41H.41c-.22,0-.41-.18-.41-.41h0c0-.22.18-.41.41-.41Z"/>
        <path class="cls-1" d="M8.68,11.39H1.32c-.1,0-.16-.06-.16-.16V2.5c0-.1.06-.16.16-.16h.49c.1,0,.16.06.16.16v7.91c0,.1.06.16.16.16h5.74c.08,0,.16-.06.16-.16V2.5c0-.1.08-.16.16-.16h.49c.08,0,.16.06.16.16v8.73c0,.1-.08.16-.16.16h0Z"/>
        <path class="cls-1" d="M6.89,2.34h-.49c-.08,0-.16-.06-.16-.16V.97c0-.1-.08-.16-.16-.16h-2.31c-.08,0-.16.06-.16.16v1.2c0,.1-.08.16-.16.16h-.49c-.08,0-.16-.06-.16-.16V.16c0-.1.08-.16.16-.16h3.93c.08,0,.16.06.16.16v2.01c0,.1-.08.16-.16.16Z"/>
        <path class="cls-1" d="M3.43,3.9h0c.23,0,.41.18.41.41v4.73c0,.23-.18.41-.41.41h0c-.23,0-.41-.18-.41-.41v-4.73c0-.23.18-.41.41-.41Z"/>
        <path class="cls-1" d="M4.92,3.9h0c.23,0,.41.18.41.41v4.73c0,.23-.18.41-.41.41h0c-.23,0-.41-.18-.41-.41v-4.73c0-.23.18-.41.41-.41Z"/>
        <path class="cls-1" d="M6.42,3.9h0c.23,0,.41.18.41.41v4.73c0,.23-.18.41-.41.41h0c-.23,0-.41-.18-.41-.41v-4.73c0-.23.18-.41.41-.41Z"/>
      </g>
    </g>
  </g>
</svg>