<?xml version="1.0" encoding="UTF-8"?>
<svg id="Layer_2" data-name="Layer 2" xmlns="http://www.w3.org/2000/svg" viewBox="0 0 245.74 103.56">
  <defs>
    <style>
      .cls-1 {
        fill: var(--brand-primary, #197dfa);
      }

      .cls-2 {
        fill: #fff;
        stroke: var(--brand-primary, #197dfa);
        stroke-miterlimit: 10;
        stroke-width: 2px;
      }
    </style>
  </defs>
  <g id="ias">
    <g>
      <rect class="cls-2" x="1" y="1" width="243.74" height="101.56" rx="5" ry="5"/>
      <path class="cls-1" d="M78.71,70.63c-4.14,0-7.47-.93-9.91-2.8-2.48-1.87-3.82-4.35-4.02-7.39h5.04c.12,1.38.61,2.52,1.46,3.37.85.85,1.91,1.54,3.25,1.99,1.3.45,2.72.65,4.22.65,1.75,0,3.29-.28,4.67-.81s2.48-1.3,3.29-2.27,1.22-2.11,1.22-3.41c0-1.18-.32-2.11-1.06-2.88-.69-.73-1.62-1.34-2.76-1.83s-2.4-.89-3.78-1.26l-4.63-1.26c-3.09-.85-5.48-2.03-7.23-3.57s-2.56-3.53-2.56-5.97c0-2.07.57-3.86,1.75-5.4,1.18-1.54,2.76-2.72,4.75-3.57s4.22-1.26,6.7-1.26,4.75.41,6.7,1.26,3.49,1.99,4.59,3.45c1.14,1.46,1.71,3.13,1.79,4.96h-4.79c-.2-1.79-1.14-3.17-2.68-4.14s-3.49-1.46-5.77-1.46c-2.48,0-4.51.57-6.01,1.67-1.5,1.14-2.27,2.52-2.27,4.27,0,1.26.41,2.32,1.26,3.09.85.77,1.83,1.38,2.97,1.83s2.19.77,3.13,1.02l3.86,1.02c1.02.24,2.15.61,3.41,1.1,1.26.45,2.44,1.06,3.57,1.83s2.07,1.71,2.8,2.88,1.1,2.6,1.1,4.31c0,1.99-.53,3.78-1.62,5.4-1.1,1.58-2.68,2.88-4.75,3.82-2.07.93-4.59,1.38-7.56,1.38h-.12v.04Z"/>
      <path class="cls-1" d="M107.8,70.63c-1.83,0-3.49-.32-4.96-.97-1.5-.65-2.68-1.62-3.53-2.88-.85-1.26-1.3-2.8-1.3-4.59,0-1.58.32-2.84.97-3.82s1.54-1.75,2.6-2.32c1.1-.57,2.32-.97,3.62-1.26s2.64-.49,3.98-.65c1.71-.2,3.13-.37,4.22-.49,1.1-.12,1.87-.32,2.4-.57s.77-.73.77-1.42v-.16c0-1.71-.49-3.01-1.54-3.94-1.02-.93-2.52-1.42-4.51-1.42s-3.7.45-4.87,1.3-1.99,1.75-2.44,2.72l-4.47-1.38c.73-1.67,1.75-2.97,3.01-3.9s2.64-1.58,4.14-1.99,3.01-.57,4.47-.57c.97,0,2.07.12,3.29.32s2.4.65,3.57,1.3c1.14.65,2.07,1.62,2.84,2.88.73,1.3,1.14,3.01,1.14,5.12v18.04h-4.55v-3.74h-.32c-.32.65-.85,1.3-1.58,1.99s-1.67,1.26-2.8,1.71-2.56.69-4.18.69h.04ZM108.61,66.73c1.71,0,3.17-.32,4.35-.97,1.18-.65,2.07-1.46,2.72-2.48.65-1.02.93-2.07.93-3.21v-3.78c-.2.2-.61.41-1.22.57-.65.16-1.34.32-2.19.45s-1.62.24-2.36.32-1.38.16-1.83.2c-1.1.12-2.15.37-3.13.69s-1.75.77-2.36,1.38c-.57.61-.85,1.46-.85,2.48,0,1.42.57,2.48,1.71,3.21,1.14.73,2.56,1.1,4.27,1.1h-.04v.04Z"/>
      <path class="cls-1" d="M136.93,69.98l-11.01-27.38h5.08l6.13,16.25c.45,1.18.85,2.4,1.22,3.57.37,1.18.69,2.36,1.02,3.49.32-1.14.65-2.32,1.02-3.49.37-1.18.73-2.36,1.18-3.57l6.13-16.25h5.08l-11.01,27.38h-4.87.04Z"/>
      <path class="cls-1" d="M169.38,70.55c-2.8,0-5.2-.57-7.19-1.75-2.03-1.18-3.57-2.8-4.67-4.92s-1.62-4.55-1.62-7.35.53-5.28,1.58-7.43c1.06-2.15,2.56-3.82,4.51-5.04s4.22-1.83,6.87-1.83c1.54,0,3.05.24,4.51.73,1.5.49,2.84,1.26,4.06,2.32s2.19,2.48,2.88,4.22c.73,1.75,1.1,3.9,1.1,6.42v1.83h-20.84c.12,2.84.97,5.04,2.6,6.58,1.62,1.54,3.7,2.27,6.26,2.27,1.71,0,3.17-.37,4.39-1.06s2.11-1.75,2.64-3.17l4.47,1.18c-.69,2.07-2.03,3.74-4.06,5.04s-4.55,1.91-7.47,1.91h0v.04ZM160.57,54.05h16.09c-.24-2.32-1.02-4.22-2.32-5.69s-3.17-2.19-5.52-2.19c-1.67,0-3.09.37-4.27,1.1s-2.15,1.71-2.84,2.88c-.69,1.18-1.06,2.48-1.18,3.9,0,0,.04,0,.04,0Z"/>
    </g>
  </g>
</svg>