<?xml version="1.0" encoding="UTF-8"?>
<svg id="Layer_2" data-name="Layer 2" xmlns="http://www.w3.org/2000/svg" viewBox="0 0 34.29 24.08">
  <defs>
    <style>
      .cls-1 {
        fill: var(--brand-primary, #197dfa);
      }
    </style>
  </defs>
  <g id="ias">
    <g>
      <path class="cls-1" d="M22.61,12.52l-.96.96-1.75-1.77c-.36-.36-.76-.8-1.16-1.28-.4-.48-.78-.94-1.1-1.36.06.32.12.64.16.96s.08.64.08.96v13.08h-1.38v-13.08c0-.32.02-.64.08-.96.04-.32.1-.64.16-.96-.32.42-.68.86-1.1,1.36-.4.48-.8.92-1.16,1.28l-1.75,1.77-.96-.96,5.44-5.44,5.44,5.44h-.02Z"/>
      <path class="cls-1" d="M22.17,17.44c-.42,0-.74-.28-.74-.64s.32-.64.74-.64h4.45c3.41,0,6.2-2.13,6.2-4.74s-2.77-4.74-6.2-4.74c-.46,0-.9.04-1.34.12h-.12c-.2,0-.32-.04-.42-.08-.18-.1-.3-.24-.34-.42-.3-1.38-1.24-2.65-2.65-3.55-1.42-.94-3.25-1.46-5.14-1.46-2.13,0-4.11.64-5.62,1.79-1.46,1.14-2.29,2.65-2.29,4.25,0,.16,0,.3.02.46.02.22-.08.44-.28.56-.12.08-.3.14-.46.14-.56-.08-.96-.12-1.38-.12-2.83,0-5.12,1.75-5.12,3.89s2.29,3.89,5.12,3.89h5.02c.42,0,.74.28.74.64s-.34.64-.74.64h-5.02c-3.65,0-6.6-2.33-6.6-5.18s2.97-5.18,6.6-5.18c.2,0,.4,0,.62.02.1-1.93,1.06-3.67,2.77-4.98,1.77-1.36,4.11-2.13,6.6-2.13,2.21,0,4.35.6,6.04,1.73,1.46.96,2.55,2.29,3.03,3.73.3-.02.62-.04.94-.04,4.23,0,7.69,2.69,7.69,6s-3.45,6-7.69,6h-4.45l.02.02Z"/>
    </g>
  </g>
</svg>