<?xml version="1.0" encoding="UTF-8"?>
<svg id="Layer_2" data-name="Layer 2" xmlns="http://www.w3.org/2000/svg" viewBox="0 0 31.45 24.26">
  <defs>
    <style>
      .cls-1 {
        fill: var(--brand-primary, #197dfa);
      }
    </style>
  </defs>
  <g id="ias">
    <g id="Assets">
      <g>
        <path class="cls-1" d="M10.72,19.28l.89-.89,1.61,1.61c.34.34.69.73,1.07,1.17.38.44.71.87,1.01,1.25-.06-.28-.1-.59-.14-.87-.04-.3-.06-.59-.06-.89v-11.99h1.27v11.99c0,.3-.02.59-.06.89-.04.3-.1.59-.14.87.3-.38.63-.79,1.01-1.25.38-.44.73-.85,1.07-1.17l1.61-1.61.89.89-4.99,4.99-4.99-4.99h-.06Z"/>
        <path class="cls-1" d="M20.29,16.01c-.38,0-.69-.26-.69-.59s.3-.59.69-.59h4.1c3.13,0,5.67-1.94,5.67-4.34s-2.54-4.34-5.67-4.34c-.42,0-.83.04-1.23.1h-.1c-.18,0-.3-.02-.38-.08-.16-.08-.28-.22-.3-.38-.28-1.25-1.15-2.42-2.42-3.27-1.31-.87-2.99-1.33-4.7-1.33-1.94,0-3.77.59-5.15,1.63-1.35,1.05-2.1,2.42-2.1,3.9,0,.14,0,.28.02.42.02.2-.08.4-.26.52-.12.08-.26.12-.42.12-.5-.08-.89-.12-1.27-.12-2.58,0-4.68,1.59-4.68,3.57s2.1,3.57,4.68,3.57h4.58c.38,0,.69.26.69.59s-.3.59-.69.59h-4.58c-3.33,0-6.06-2.12-6.06-4.74s2.72-4.74,6.06-4.74h.57c.08-1.78.99-3.35,2.54-4.56,1.61-1.25,3.77-1.94,6.06-1.94,2.02,0,4,.57,5.55,1.57,1.35.89,2.32,2.1,2.79,3.43.28-.02.57-.04.85-.04,3.88,0,7.04,2.46,7.04,5.51s-3.17,5.51-7.04,5.51h-4.1l-.02.02Z"/>
      </g>
    </g>
  </g>
</svg>