<?xml version="1.0" encoding="UTF-8"?>
<svg id="Layer_2" data-name="Layer 2" xmlns="http://www.w3.org/2000/svg" viewBox="0 0 28.15 28.15">
  <defs>
    <style>
      .cls-1 {
        fill: #fff;
      }

      .cls-2 {
        fill: #f5f5ff;
        stroke: #f5f5ff;
        stroke-miterlimit: 10;
        stroke-width: .15px;
      }

      .cls-3 {
        fill: var(--brand-primary, #197dfa);
      }
    </style>
  </defs>
  <g id="Menu">
    <g>
      <rect class="cls-2" x=".07" y=".07" width="28" height="28" rx="1" ry="1"/>
      <g>
        <path class="cls-3" d="M14.16,13.43l1.12.04-.27.58-.8-.04c-.11.54-.35.95-.76,1.27-.42.32-1.04.48-1.86.48h-.28l2.83,3.13h-.88l-3.04-3.25v-.43l1.3.05c.55,0,.99-.1,1.33-.3.34-.2.55-.5.61-.89l-3.34-.06.25-.57,3.03.03c-.03-.42-.23-.7-.55-.91-.31-.2-.73-.3-1.26-.3h-1.47l.25-.57,4.93.03-.25.58-1.44-.04c.28.37.48.73.55,1.17Z"/>
        <path class="cls-3" d="M22.01,13.62v-3.49c0-.99-.71-1.79-1.59-1.79h-.57v-1.04c0-.95-.69-1.73-1.54-1.73H7.11c-.85,0-1.54.78-1.54,1.74v13.47c0,.99.71,1.79,1.59,1.79h13.26c.88,0,1.59-.8,1.59-1.79v-3.49c.33-.12.56-.47.56-.88v-1.91c0-.41-.23-.76-.56-.88ZM7.11,6.29h11.2c.5,0,.9.45.9,1.01v1.04H7.11c-.5,0-.9-.46-.9-1.03s.4-1.02.9-1.02ZM21.37,20.78c0,.59-.42,1.07-.95,1.07H7.16c-.52,0-.95-.48-.95-1.07v-12.06c.25.21.57.34.9.34h13.31c.53,0,.95.48.95,1.07v3.44h-1.96c-.93,0-1.68.84-1.68,1.89s.75,1.88,1.68,1.88h1.96v3.44ZM21.94,16.41c0,.12-.09.22-.2.22h-2.33c-.57,0-1.04-.53-1.04-1.17s.47-1.18,1.04-1.18h2.33c.11,0,.2.1.2.22v1.91Z"/>
        <path class="cls-1" d="M21.94,14.5v1.91c0,.12-.09.22-.2.22h-2.33c-.57,0-1.04-.53-1.04-1.17s.47-1.18,1.04-1.18h2.33c.11,0,.2.1.2.22Z"/>
        <path class="cls-1" d="M19.21,7.3v1.04H7.11c-.5,0-.9-.46-.9-1.03s.4-1.02.9-1.02h11.2c.5,0,.9.45.9,1.01Z"/>
        <path class="cls-1" d="M19.41,13.57h1.96v-3.44c0-.59-.42-1.07-.95-1.07H7.11c-.33,0-.65-.13-.9-.34v12.06c0,.59.43,1.07.95,1.07h13.26c.53,0,.95-.48.95-1.07v-3.44h-1.96c-.93,0-1.68-.84-1.68-1.88s.75-1.89,1.68-1.89ZM14.16,13.43l1.12.04-.27.58-.8-.04c-.11.54-.35.95-.76,1.27-.42.32-1.04.48-1.86.48h-.28l2.83,3.13h-.88l-3.04-3.25v-.43l1.3.05c.55,0,.99-.1,1.33-.3.34-.2.55-.5.61-.89l-3.34-.06.25-.57,3.03.03c-.03-.42-.23-.7-.55-.91-.31-.2-.73-.3-1.26-.3h-1.47l.25-.57,4.93.03-.25.58-1.44-.04c.28.37.48.73.55,1.17Z"/>
      </g>
    </g>
  </g>
</svg>