<?xml version="1.0" encoding="UTF-8"?>
<svg id="Layer_2" xmlns="http://www.w3.org/2000/svg" version="1.1" xmlns:xlink="http://www.w3.org/1999/xlink" viewBox="0 0 25 30">
  <!-- Generator: Adobe Illustrator 29.6.1, SVG Export Plug-In . SVG Version: 2.1.1 Build 9)  -->
  <defs>
    <style>
      .st0 {
        fill: url(#linear-gradient1);
        stroke: url(#linear-gradient2);
        stroke-miterlimit: 10;
      }

      .st1 {
        fill: url(#linear-gradient6);
      }

      .st1, .st2, .st3, .st4, .st5 {
        isolation: isolate;
        opacity: .8;
      }

      .st2 {
        fill: url(#linear-gradient3);
      }

      .st6 {
        fill: #fff;
      }

      .st3 {
        fill: url(#linear-gradient4);
      }

      .st4 {
        fill: url(#linear-gradient7);
      }

      .st5 {
        fill: url(#linear-gradient5);
      }

      .st7 {
        fill: url(#linear-gradient);
      }
    </style>
    <linearGradient id="linear-gradient" x1="0" y1="15" x2="25" y2="15" gradientUnits="userSpaceOnUse">
      <stop offset="0" stop-color="#52c234"/>
      <stop offset="1" stop-color="#007f00"/>
    </linearGradient>
    <linearGradient id="linear-gradient1" x1=".9" y1="15.4" x2="12.5" y2="15.4" xlink:href="#linear-gradient"/>
    <linearGradient id="linear-gradient2" x1=".4" y1="15.4" x2="13" y2="15.4" xlink:href="#linear-gradient"/>
    <linearGradient id="linear-gradient3" x1="14.7" y1="20.9" x2="22.4" y2="20.9" xlink:href="#linear-gradient"/>
    <linearGradient id="linear-gradient4" x1="14.7" y1="18.1" x2="22.4" y2="18.1" xlink:href="#linear-gradient"/>
    <linearGradient id="linear-gradient5" x1="14.7" y1="15.3" x2="22.4" y2="15.3" xlink:href="#linear-gradient"/>
    <linearGradient id="linear-gradient6" x1="14.7" y1="12.5" x2="22.4" y2="12.5" xlink:href="#linear-gradient"/>
    <linearGradient id="linear-gradient7" x1="14.7" y1="9.8" x2="22.4" y2="9.8" xlink:href="#linear-gradient"/>
    <symbol id="Excel" viewBox="0 0 25 30">
      <g id="export_to_excel_icon">
        <path class="st7" d="M25,24.2l-.5.5-4.8,4.8-.5.5H2.4c-1.3,0-2.4-1.1-2.4-2.4V2.4C0,1.1,1.1,0,2.4,0h20.2c1.3,0,2.4,1.1,2.4,2.4v21.8h0ZM22.6,1H2.4c-.8,0-1.4.6-1.4,1.5v25.2c0,.8.6,1.5,1.4,1.5h16.8v-4.8h4.8V2.4c0-.8-.6-1.5-1.4-1.5h0Z"/>
        <g>
          <rect class="st0" x=".9" y="9.6" width="11.5" height="11.6" rx="1.1" ry="1.1"/>
          <polygon class="st6" points="11.3 10.4 7.7 15.6 11.1 20.4 9.6 20.4 6.8 16.5 4 20.4 2.3 20.4 5.9 15.5 2.2 10.4 3.7 10.4 6.8 14.6 9.7 10.4 11.3 10.4"/>
        </g>
        <g>
          <rect class="st2" x="14.7" y="20.2" width="7.6" height="1.5" rx=".7" ry=".7"/>
          <rect class="st3" x="14.7" y="17.4" width="7.6" height="1.5" rx=".7" ry=".7"/>
          <rect class="st5" x="14.7" y="14.6" width="7.6" height="1.5" rx=".7" ry=".7"/>
          <rect class="st1" x="14.7" y="11.8" width="7.6" height="1.5" rx=".7" ry=".7"/>
          <rect class="st4" x="14.7" y="9" width="7.6" height="1.5" rx=".7" ry=".7"/>
        </g>
      </g>
    </symbol>
  </defs>
  <g id="PR_Log">
    <use width="25" height="30" transform="translate(0 30) scale(1 -1)" xlink:href="#Excel"/>
  </g>
</svg>