<?xml version="1.0" encoding="UTF-8"?>
<svg id="Layer_1" data-name="Layer 1" xmlns="http://www.w3.org/2000/svg" viewBox="0 0 18 12">
  <defs>
    <style>
      .cls-1 {
        fill: #fff;
      }

      .cls-2 {
        fill: currentColor;
      }
    </style>
  </defs>
  <path class="cls-2" d="M9,0C4.03,0,0,4.8,0,6s4.03,6,9,6,9-4.8,9-6S13.97,0,9,0ZM14.48,8.68c-1.23.97-3.18,2.12-5.48,2.12s-4.25-1.15-5.48-2.12c-1.46-1.15-2.2-2.26-2.4-2.68.19-.42.94-1.53,2.4-2.68,1.23-.97,3.18-2.12,5.48-2.12s4.25,1.15,5.48,2.12c1.46,1.15,2.2,2.26,2.4,2.68-.19.42-.94,1.53-2.4,2.68Z"/>
  <path class="cls-2" d="M9,1.2c-2.19,0-3.97,1.81-3.97,4.05s1.78,4.05,3.97,4.05,3.97-1.81,3.97-4.05-1.78-4.05-3.97-4.05Z"/>
  <path class="cls-1" d="M6.11,6c-.53-2.3,1.7-4.53,3.82-3.75-1.89.51-3.17,1.69-3.82,3.75h0Z"/>
</svg>