<?xml version="1.0" encoding="UTF-8"?>
<svg xmlns="http://www.w3.org/2000/svg" viewBox="0 0 219.08 95.36" aria-hidden="true">
  <defs>
    <style>
      .new-btn-bg {
        fill: var(--brand-primary, #0f7c94);
        stroke: var(--brand-primary, #0f7c94);
        stroke-width: 2px;
        stroke-miterlimit: 10;
      }
      .new-btn-label {
        fill: #2d3748;
      }
      .new-btn-plus {
        fill: none;
        stroke: #ffffff;
        stroke-width: 5px;
        stroke-miterlimit: 10;
      }
    </style>
  </defs>
  <g>
    <rect class="new-btn-bg" x="1" y="1" width="217.08" height="93.36" rx="5" ry="5"/>
    <g>
      <path class="new-btn-label" d="M85,28.62h6.6l14.09,21.15c1.15,1.76,2.84,4.46,4.49,7.87-.28-3.43-.38-6.75-.38-8.8v-20.22h5.8v35.53h-6.63l-12.63-18.91c-1.83-2.79-3.26-5.25-5.98-10.02.23,4.46.43,8.13.43,9.97v18.96h-5.8V28.62Z"/>
      <path class="new-btn-label" d="M122.15,51.01c0-8.2,5.07-13.86,12.93-13.86,6.4,0,12.53,3.79,12.53,13.4v1.86h-19.91c.2,5.15,3.31,7.94,7.91,7.94,3.09,0,5.4-1.29,6.38-3.77l5.2,1.17c-1.33,4.15-5.62,6.94-11.62,6.94-8.29,0-13.41-5.41-13.41-13.69ZM142.13,48.51c-.4-4.2-2.79-7.01-7.03-7.01s-7.08,3.17-7.38,7.01h14.41Z"/>
      <path class="new-btn-label" d="M150.51,37.49h5.82l3.09,11.04c.78,2.86,1.71,6.25,2.56,10.4.85-4.01,1.76-7.42,2.59-10.4l3.09-11.04h5.52l3.06,11.04c.78,2.91,1.68,6.3,2.54,10.35.85-4.03,1.73-7.39,2.54-10.35l3.09-11.04h5.88l-8.46,26.66h-5.55l-3.47-11.47c-.85-2.79-1.63-6.01-2.41-9.21-.8,3.2-1.61,6.46-2.44,9.21l-3.46,11.47h-5.55l-8.44-26.66Z"/>
    </g>
    <g>
      <line class="new-btn-plus" x1="46.35" y1="29.78" x2="46.35" y2="65.58"/>
      <line class="new-btn-plus" x1="64.24" y1="47.68" x2="28.45" y2="47.68"/>
    </g>
  </g>
</svg>
