<?xml version="1.0" encoding="UTF-8"?>
<svg id="Layer_2" data-name="Layer 2" xmlns="http://www.w3.org/2000/svg" viewBox="0 0 70 51.88">
  <g id="Assets">
    <g>
      <path d="M23.87,4.53c-1.6,0-3.15-1.07-4.37-2.09l-1.5-1.25c-.92-.77-2.02-1.18-3.15-1.18H2.1C.94,0,0,.94,0,2.1v46.97c0,1.55,1.26,2.81,2.81,2.81h64.38c1.55,0,2.81-1.26,2.81-2.81V7.34c0-1.55-1.26-2.81-2.81-2.81H23.87Z" fill="#d2d2ff"/>
      <g>
        <path d="M30,33.21l4.16-4.27-3.9-4.07h1.71l1.68,1.77c.23.24.42.44.57.61s.29.33.41.48c.12.15.25.33.39.52.13-.19.26-.37.39-.52s.26-.32.42-.48c.15-.17.34-.37.57-.61l1.71-1.77h1.68l-3.91,4.03,4.12,4.31h-1.71l-2.03-2.11c-.29-.31-.52-.56-.7-.76s-.36-.44-.55-.71c-.19.26-.37.5-.55.7s-.42.46-.72.76l-2.05,2.11h-1.68Z" fill="#fff"/>
        <rect x="26" y="20.04" width="18" height="18" rx="1" ry="1" fill="none" stroke="#fff" stroke-miterlimit="10"/>
      </g>
    </g>
  </g>
</svg>