<?xml version="1.0" encoding="UTF-8"?>
<svg id="Layer_2" data-name="Layer 2" xmlns="http://www.w3.org/2000/svg" viewBox="0 0 30.25 30.25">
  <defs>
    <style>
      .cls-1 {
        fill: #f5f5ff;
        stroke: #d2d2ff;
        stroke-miterlimit: 10;
        stroke-width: .25px;
      }

      .cls-2 {
        fill: #fff;
      }

      .cls-4 {
        fill: #0046d2;
      }
    </style>
  </defs>
  <g id="ias">
    <g>
      <rect class="cls-1" x=".12" y=".12" width="30" height="30" rx="2" ry="2"/>
      <path class="cls-4" d="M23.33,20.62c-2.42-1.24-3.66-4.04-3.81-8.56,0-.44-.07-.88-.22-1.31-.43-1.21-1.4-2.09-2.57-2.53v-.06c0-.85-.72-1.53-1.6-1.53s-1.61.68-1.61,1.53v.04c-1.69.62-2.81,2.14-2.79,3.86-.14,4.52-1.39,7.32-3.81,8.56h-.29v.77h5.96c.14,1.25,1.22,2.24,2.54,2.24s2.4-.99,2.54-2.24h5.96v-.77h-.3ZM15.13,7.39c.33,0,.62.18.75.43-.25-.03-.5-.04-.75-.04s-.51.01-.76.04c.14-.25.42-.43.76-.43ZM15.13,22.86c-.86,0-1.58-.58-1.76-1.35h3.51c-.18.77-.9,1.35-1.75,1.35ZM8.32,20.63c2-1.59,3.04-4.4,3.17-8.57-.01-1.46.98-2.75,2.47-3.21,1.91-.6,3.98.37,4.62,2.16.12.34.18.7.18,1.08.13,4.14,1.17,6.95,3.17,8.54h-13.61Z"/>
      <path class="cls-2" d="M16.88,21.51c-.18.77-.9,1.35-1.75,1.35s-1.58-.58-1.76-1.35h3.51Z"/>
      <path class="cls-2" d="M21.93,20.63h-13.61c2-1.59,3.04-4.4,3.17-8.57-.01-1.46.98-2.75,2.47-3.21,1.91-.6,3.98.37,4.62,2.16.12.34.18.7.18,1.08.13,4.14,1.17,6.95,3.17,8.54Z"/>
    </g>
  </g>
</svg>