<?xml version="1.0" encoding="UTF-8"?>
<svg id="Layer_2" data-name="Layer 2" xmlns="http://www.w3.org/2000/svg" viewBox="0 0 30.25 30.25">
  <defs>
    <style>
      .cls-1 {
        fill: #fafcff;
        stroke: #d2d2ff;
        stroke-miterlimit: 10;
        stroke-width: .25px;
      }

      .cls-2 {
        fill: var(--brand-primary, #197dfa);
      }
    </style>
  </defs>
  <g id="ias">
    <g>
      <rect class="cls-1" x=".12" y=".12" width="30" height="30" rx="2" ry="2"/>
      <path class="cls-2" d="M23.63,21.39v-.77h-.29c-2.42-1.24-3.67-4.04-3.81-8.56,0-.44-.08-.88-.23-1.31-.43-1.21-1.4-2.09-2.56-2.53v-.07c0-.84-.72-1.53-1.61-1.53s-1.61.69-1.61,1.53v.04c-1.69.62-2.81,2.14-2.79,3.86-.15,4.52-1.39,7.32-3.81,8.56h-.29s0,.77,0,.77h5.96c.14,1.25,1.22,2.24,2.54,2.24,1.32,0,2.4-.98,2.54-2.24h5.96ZM15.12,22.86c-.86,0-1.58-.58-1.76-1.36h3.52c-.18.77-.9,1.35-1.76,1.36ZM15.12,7.39c.33,0,.62.18.76.43-.25-.03-.5-.05-.76-.05s-.51.02-.76.05c.14-.26.42-.43.76-.43ZM8.32,20.62c2-1.58,3.04-4.4,3.17-8.57-.02-1.46.97-2.75,2.46-3.21,1.91-.6,3.98.37,4.62,2.16.12.34.18.7.18,1.08.13,4.14,1.17,6.96,3.17,8.54h-13.61Z"/>
    </g>
  </g>
</svg>
