<?xml version="1.0" encoding="UTF-8"?>
<svg id="Layer_2" data-name="Layer 2" xmlns="http://www.w3.org/2000/svg" viewBox="0 0 28.15 28.15">
  <defs>
    <style>
      .cls-1 {
        fill: #f5f5ff;
        stroke: #f5f5ff;
        stroke-miterlimit: 10;
        stroke-width: .15px;
      }

      .cls-2 {
        fill: var(--brand-primary, #197dfa);
      }
    </style>
  </defs>
  <g id="Menu">
    <g>
      <rect class="cls-1" x=".07" y=".07" width="28" height="28" rx="1" ry="1"/>
      <g>
        <path class="cls-2" d="M10.29,16.4c-.2,0-.38-.12-.46-.32L5.62,6.41c-.08-.32-.06-.53.05-.67.06-.08.17-.16.37-.16.17,0,.33.07.34.07l4.24,9.66h9.1c.28,0,.51.25.51.55s-.23.55-.51.55h-9.42Z"/>
        <path class="cls-2" d="M11.46,13.84c-.28,0-.51-.25-.51-.55s.23-.55.51-.55h8.25c.28,0,.51.25.51.55s-.23.55-.51.55h-8.25Z"/>
        <path class="cls-2" d="M10.28,11.28c-.28,0-.51-.25-.51-.55s.23-.54.51-.54h10.6c.28,0,.51.24.51.54s-.23.55-.51.55h-10.6Z"/>
        <path class="cls-2" d="M9.11,8.73c-.28,0-.51-.25-.51-.55s.23-.55.51-.55h12.96c.28,0,.51.25.51.55s-.23.55-.51.55h-12.96Z"/>
        <path class="cls-2" d="M19.18,22.58c-1.14,0-2.06-1-2.06-2.23s.92-2.23,2.06-2.23,2.06,1,2.06,2.23-.92,2.23-2.06,2.23ZM19.18,19.07c-.65,0-1.17.57-1.17,1.28s.53,1.28,1.17,1.28,1.17-.57,1.17-1.28-.52-1.28-1.17-1.28Z"/>
        <path class="cls-2" d="M10.82,22.58c-1.14,0-2.06-1-2.06-2.23s.92-2.23,2.06-2.23,2.06,1,2.06,2.23-.92,2.23-2.06,2.23ZM10.82,19.07c-.65,0-1.17.57-1.17,1.28s.52,1.28,1.17,1.28,1.17-.57,1.17-1.28-.53-1.28-1.17-1.28Z"/>
      </g>
    </g>
  </g>
</svg>