<?xml version="1.0" encoding="UTF-8"?>
<svg id="Layer_2" data-name="Layer 2" xmlns="http://www.w3.org/2000/svg" viewBox="0 0 28.15 28.15">
  <defs>
    <style>
      .cls-1 {
        opacity: .9;
      }

      .cls-2 {
        fill: #fafcff;
        stroke: #d2d2ff;
        stroke-miterlimit: 10;
        stroke-width: .15px;
      }

      .cls-3 {
        fill: #fff;
      }

      .cls-4 {
        fill: var(--brand-primary, #197dfa);
      }
    </style>
  </defs>
  <g id="Menu">
    <g>
      <rect class="cls-2" x=".07" y=".08" width="28" height="28" rx="1" ry="1"/>
      <g class="cls-1">
        <g>
          <g>
            <path class="cls-4" d="M21.02,5.57H7.14c-.86,0-1.56.7-1.56,1.56v13.88c0,.86.7,1.56,1.56,1.56h13.88c.86,0,1.56-.7,1.56-1.56V7.13c0-.86-.7-1.56-1.56-1.56ZM21.77,21.01c0,.42-.34.75-.75.75H7.14c-.41,0-.75-.33-.75-.75V7.13c0-.41.34-.75.75-.75h13.88c.41,0,.75.34.75.75v13.88Z"/>
            <path class="cls-3" d="M21.02,6.38H7.14c-.41,0-.75.34-.75.75v13.88c0,.42.34.75.75.75h13.88c.41,0,.75-.33.75-.75V7.13c0-.41-.34-.75-.75-.75ZM18.94,17.84h-9.72c-.22,0-.4-.18-.4-.41s.18-.4.4-.4h9.72c.22,0,.4.18.4.4s-.18.41-.4.41ZM18.94,14.48h-9.72c-.22,0-.4-.18-.4-.41s.18-.4.4-.4h9.72c.22,0,.4.18.4.4s-.18.41-.4.41ZM18.94,11.11h-9.72c-.22,0-.4-.18-.4-.4s.18-.41.4-.41h9.72c.22,0,.4.19.4.41s-.18.4-.4.4Z"/>
          </g>
          <path class="cls-4" d="M19.34,10.71c0,.22-.18.4-.4.4h-9.72c-.22,0-.4-.18-.4-.4s.18-.41.4-.41h9.72c.22,0,.4.19.4.41Z"/>
          <path class="cls-4" d="M19.34,14.07c0,.23-.18.41-.4.41h-9.72c-.22,0-.4-.18-.4-.41s.18-.4.4-.4h9.72c.22,0,.4.18.4.4Z"/>
          <path class="cls-4" d="M19.34,17.43c0,.23-.18.41-.4.41h-9.72c-.22,0-.4-.18-.4-.41s.18-.4.4-.4h9.72c.22,0,.4.18.4.4Z"/>
        </g>
      </g>
    </g>
  </g>
</svg>