<?xml version="1.0" encoding="UTF-8"?>
<svg xmlns="http://www.w3.org/2000/svg" viewBox="0 0 226.06 95.36" aria-hidden="true">
  <defs>
    <style>
      .reset-btn-bg {
        fill: #ffffff;
        stroke: #898989;
        stroke-miterlimit: 10;
        stroke-width: 2px;
      }
      .reset-btn-label {
        fill: #2d3748;
      }
    </style>
  </defs>
  <g>
    <rect class="reset-btn-bg" x="1" y="1" width="224.06" height="93.36" rx="5" ry="5"/>
    <g>
      <path class="reset-btn-label" d="M56.04,27.64h11.47c7.83,0,11.42,4.36,11.42,10.35,0,4.45-1.98,7.89-6.21,9.38l7.51,13.79h-4.95l-6.97-13.02c-.27.02-.52.02-.79.02h-7.22v13h-4.27V27.64ZM67.33,44.35c5.29,0,7.36-2.43,7.36-6.36s-2.07-6.59-7.4-6.59h-6.97v12.96h7.02Z"/>
      <path class="reset-btn-label" d="M83.3,48.78c0-7.71,4.45-13.09,11.31-13.09,5.33,0,10.95,3.28,10.95,12.57v1.69h-18.17c.2,5.26,3.26,8.14,7.71,8.14,2.97,0,5.2-1.3,6.14-3.87l3.91,1.08c-1.17,3.8-4.93,6.39-10.08,6.39-7.29,0-11.79-5.17-11.79-12.91ZM101.45,46.53c-.38-4.27-2.7-7.24-6.84-7.24s-6.95,3.4-7.2,7.24h14.03Z"/>
      <path class="reset-btn-label" d="M110.25,55.06l3.85-.92c.72,2.77,2.77,4,5.78,4,3.51,0,5.76-1.73,5.76-3.8,0-1.73-1.21-2.88-3.69-3.46l-4.18-.99c-4.57-1.08-6.75-3.33-6.75-6.86,0-4.32,3.96-7.33,9.31-7.33s7.89,2.52,9.04,6.05l-3.67.94c-.7-1.8-2.11-3.55-5.35-3.55-2.99,0-5.24,1.55-5.24,3.64,0,1.87,1.28,2.9,4.23,3.6l3.8.9c4.57,1.08,6.7,3.35,6.7,6.79,0,4.41-4.03,7.62-9.92,7.62-5.17,0-8.77-2.29-9.67-6.64Z"/>
      <path class="reset-btn-label" d="M134.48,48.78c0-7.71,4.45-13.09,11.31-13.09,5.33,0,10.95,3.28,10.95,12.57v1.69h-18.17c.2,5.26,3.26,8.14,7.71,8.14,2.97,0,5.2-1.3,6.14-3.87l3.91,1.08c-1.17,3.8-4.93,6.39-10.08,6.39-7.29,0-11.79-5.17-11.79-12.91ZM152.63,46.53c-.38-4.27-2.7-7.24-6.84-7.24s-6.95,3.4-7.2,7.24h14.03Z"/>
      <path class="reset-btn-label" d="M172.45,39.47h-5.17v15.16c0,2.25.83,3.24,2.97,3.24.52,0,1.39-.14,2.07-.27l.83,3.42c-.83.29-1.98.45-3.01.45-4.34,0-6.9-2.41-6.9-6.52v-15.47h-3.78v-3.46h3.78v-5.98h4.05v5.98h5.17v3.46Z"/>
    </g>
  </g>
</svg>
