<?xml version="1.0" encoding="UTF-8"?>
<svg id="Layer_2" data-name="Layer 2" xmlns="http://www.w3.org/2000/svg" viewBox="0 0 44.15 40.07">
  <defs>
    <style>
      .cls-1 {
        fill: var(--brand-primary, #197dfa);
        opacity: .9;
      }

      .cls-2 {
        fill: #fff;
        stroke: #5a6ee6;
        stroke-miterlimit: 10;
        stroke-width: .15px;
      }
    </style>
  </defs>
  <g id="Menu">
    <g>
      <rect class="cls-2" x=".08" y=".08" width="44" height="39.92"/>
      <path class="cls-1" d="M20.69,29.04c-.41,0-.74-.33-.75-.74v-1.16c-.54-.13-1-.32-1.49-.59h-.12s-.65.73-.65.73c-.14.14-.33.22-.54.22s-.38-.08-.52-.21l-1.89-1.86c-.14-.14-.22-.33-.23-.53,0-.2.08-.39.22-.53l.81-.83c-.28-.47-.47-.92-.62-1.47l-.08-.08-.98.06c-.41,0-.75-.33-.76-.74l-.02-2.64c0-.2.08-.39.22-.53.14-.14.33-.22.53-.22h1.16c.13-.54.32-1,.59-1.49v-.12s-.73-.65-.73-.65c-.29-.29-.3-.77,0-1.06l1.85-1.89c.14-.14.33-.22.54-.22s.38.08.52.21l.83.81c.47-.28.92-.47,1.47-.63l.08-.08-.06-.98c0-.2.08-.39.21-.53.14-.14.33-.22.53-.22l2.64-.02c.38.04.75.3.76.74v1.16c.54.14,1,.32,1.49.59h.12s.65-.73.65-.73c.14-.14.33-.22.54-.22s.38.08.53.21l1.88,1.86c.14.14.22.33.22.52,0,.2-.08.39-.22.53l-.81.83c.28.47.47.92.62,1.47l.08.08.98-.05c.22,0,.39.08.53.21.14.14.22.33.23.53l.02,2.64c0,.2-.08.39-.22.53-.14.14-.33.22-.53.22h-1.16c-.13.54-.32,1-.59,1.49v.12s.73.65.73.65c.14.14.22.33.22.53,0,.2-.07.39-.22.53l-1.85,1.89c-.14.14-.33.22-.54.22s-.38-.08-.52-.21l-.83-.81c-.47.28-.92.47-1.47.63l-.08.08.05.98c0,.2-.08.39-.21.53-.14.14-.33.22-.53.23l-2.64.02h0ZM18.59,25.55c.59.37,1.23.65,1.91.82l.31.08.05,1.72,2.35-.07-.06-1.56.35-.13c.7-.16,1.35-.42,1.94-.78l.27-.16,1.25,1.18,1.61-1.71-1.15-1.06.16-.34c.38-.6.65-1.25.82-1.92l.08-.31,1.72-.05-.07-2.35-1.56.06-.13-.35c-.16-.7-.42-1.35-.77-1.94l-.16-.27,1.18-1.25-1.71-1.61-1.06,1.15-.34-.16c-.6-.38-1.24-.65-1.92-.82l-.31-.08-.05-1.72-2.35.07.06,1.56-.35.13c-.7.16-1.35.42-1.94.78l-.27.16-1.25-1.18-1.61,1.71,1.15,1.06-.16.34c-.38.6-.65,1.25-.82,1.92l-.08.31-1.72.05.07,2.35,1.56-.06.13.35c.16.7.42,1.35.77,1.94l.16.27-1.18,1.25,1.71,1.61,1.09-1.19.32.2Z"/>
      <path class="cls-1" d="M22.07,23.92c-1.03,0-2-.39-2.73-1.11-.74-.73-1.15-1.7-1.16-2.74,0-1.04.39-2.02,1.11-2.76.73-.75,1.72-1.16,2.77-1.16s2,.39,2.73,1.11c.74.73,1.15,1.7,1.16,2.74,0,1.04-.39,2.02-1.11,2.76-.73.75-1.72,1.16-2.77,1.16ZM22.05,17.08c-.79,0-1.53.32-2.08.89-.55.56-.86,1.31-.85,2.1,0,.79.32,1.53.88,2.08.56.55,1.28.84,2.1.85.79,0,1.53-.32,2.09-.89,1.14-1.16,1.13-3.04-.04-4.19-.54-.53-1.22-.81-2.1-.85h0Z"/>
    </g>
  </g>
</svg>