<?xml version="1.0" encoding="UTF-8"?>
<svg id="Layer_1" xmlns="http://www.w3.org/2000/svg" version="1.1" viewBox="0 0 18 12">
  <!-- Generator: Adobe Illustrator 30.3.0, SVG Export Plug-In . SVG Version: 2.1.3 Build 182)  -->
  <defs>
    <style>
      .st0 {
        fill: #fff;
      }

      .st1 {
        fill: currentColor;
      }
    </style>
  </defs>
  <path class="st1" d="M9,0C4,0,0,4.8,0,6s4,6,9,6,9-4.8,9-6S14,0,9,0ZM14.5,8.7c-1.2,1-3.2,2.1-5.5,2.1s-4.2-1.1-5.5-2.1c-1.5-1.2-2.2-2.3-2.4-2.7.2-.4.9-1.5,2.4-2.7,1.2-1,3.2-2.1,5.5-2.1s4.2,1.1,5.5,2.1c1.5,1.1,2.2,2.3,2.4,2.7-.2.4-.9,1.5-2.4,2.7Z"/>
  <path class="st1" d="M9,1.2c-2.2,0-4,1.8-4,4s1.8,4.1,4,4.1,4-1.8,4-4.1-1.8-4.1-4-4Z"/>
  <path class="st0" d="M6.1,6c-.5-2.3,1.7-4.5,3.8-3.8-1.9.5-3.2,1.7-3.8,3.8h0Z"/>
</svg>