<?xml version="1.0" encoding="UTF-8"?>
<svg id="Layer_2" data-name="Layer 2" xmlns="http://www.w3.org/2000/svg" xmlns:xlink="http://www.w3.org/1999/xlink" viewBox="0 0 97.76 97.12">
  <defs>
    <style>
      .cls-1 {
        fill: url(#radial-gradient);
        isolation: isolate;
        opacity: .75;
      }
    </style>
    <radialGradient id="radial-gradient" cx="14.85" cy="9.66" fx="14.85" fy="9.66" r="95.97" gradientUnits="userSpaceOnUse">
      <stop offset="0" stop-color="#c9c9c9"/>
      <stop offset="1" stop-color="#6e6e6e"/>
    </radialGradient>
  </defs>
  <g id="ias">
    <path class="cls-1" d="M50.65,5.21l5.74-4.22c2.58-1.89,6.24-.99,7.64,1.88l3.13,6.4c.57,1.18,1.84,1.84,3.14,1.65l7.05-1.07c3.16-.48,5.98,2.02,5.89,5.22l-.21,7.12c-.04,1.31.78,2.49,2.01,2.92l6.73,2.33c3.02,1.05,4.36,4.57,2.79,7.36l-3.5,6.21c-.64,1.14-.47,2.56.43,3.52l4.88,5.19c2.19,2.33,1.73,6.07-.95,7.81l-5.98,3.87c-1.1.71-1.61,2.05-1.26,3.31l1.91,6.87c.86,3.08-1.29,6.18-4.47,6.47l-7.1.65c-1.3.12-2.38,1.07-2.65,2.35l-1.5,6.97c-.67,3.12-4.01,4.88-6.97,3.66l-6.59-2.72c-1.21-.5-2.6-.16-3.44.85l-4.57,5.47c-2.05,2.45-5.82,2.45-7.87,0l-4.57-5.47c-.84-1-2.23-1.35-3.44-.85l-6.59,2.72c-2.95,1.22-6.29-.53-6.97-3.66l-1.5-6.97c-.28-1.28-1.35-2.23-2.65-2.35l-7.1-.65c-3.18-.29-5.32-3.39-4.47-6.47l1.91-6.87c.35-1.26-.16-2.6-1.26-3.31l-5.98-3.87c-2.68-1.74-3.14-5.48-.95-7.81l4.88-5.19c.9-.95,1.07-2.38.43-3.52l-3.5-6.21c-1.57-2.79-.23-6.31,2.79-7.36l6.73-2.33c1.24-.43,2.05-1.61,2.01-2.92l-.21-7.12c-.09-3.19,2.73-5.7,5.89-5.22l7.05,1.07c1.29.2,2.56-.47,3.14-1.65l3.13-6.4C35.13,0,38.79-.9,41.37,1l5.74,4.22c1.05.77,2.49.77,3.54,0Z"/>
  </g>
</svg>