<?xml version="1.0" encoding="UTF-8"?>
<svg id="Layer_2" data-name="Layer 2" xmlns="http://www.w3.org/2000/svg" viewBox="0 0 44.11 40.07">
  <defs>
    <style>
      .cls-1 {
        opacity: .9;
      }

      .cls-2 {
        fill: #fff;
        stroke: #5a6ee6;
        stroke-miterlimit: 10;
        stroke-width: .15px;
      }

      .cls-3 {
        fill: var(--brand-primary, #197dfa);
      }
    </style>
  </defs>
  <g id="Menu">
    <g>
      <rect class="cls-2" x=".08" y=".08" width="43.96" height="39.92"/>
      <g class="cls-1">
        <g>
          <g>
            <path class="cls-3" d="M18.53,20.06c0-.72.49-1.22,1.2-1.22s1.2.5,1.2,1.22c0,.67-.47,1.18-1.22,1.18-.69,0-1.2-.51-1.18-1.18Z"/>
            <path class="cls-3" d="M23.22,20.06c0-.72.49-1.22,1.2-1.22s1.2.5,1.2,1.22c0,.67-.47,1.18-1.22,1.18-.69,0-1.2-.51-1.18-1.18Z"/>
          </g>
          <path class="cls-3" d="M22.25,28.54c-.25,0-.49,0-.74-.01h-.1c-.55-.02-.97-.29-1.13-.74-.11-.31-.06-.63.14-.9.18-.25.46-.4.79-.44.14-.02.28-.02.43-.02h.96c.53.01.9.19,1.15.57.09.14.23.21.41.21,0,0,1.34,0,1.51,0,.52,0,1.02-.18,1.47-.5.44-.32.79-.74,1.1-1.35.21-.41.38-.87.53-1.45.01-.04.04-.14-.03-.23-.06-.07-.16-.08-.2-.08h-.24c-.12-.02-.24-.02-.35-.03-.3-.03-.57-.26-.6-.51-.03-.21-.02-.43-.02-.64l.04-4.19c0-.37.32-.67.72-.69.08,0,.18-.01.24-.08.07-.08.07-.17.06-.26-.14-1.04-.6-1.97-1.35-2.77-.9-.96-2.06-1.57-3.44-1.82-.38-.07-.78-.1-1.28-.1h-.16c-.36,0-.67,0-.99.03-.55.04-1.1.17-1.62.36-1.45.55-2.52,1.47-3.19,2.75-.23.43-.38.9-.47,1.39-.02.1-.03.21.05.29.06.07.16.09.26.1.49.05.7.43.69.75-.01.47-.02.93-.02,1.39l-.04,3.27c0,.26-.28.55-.58.6-.12.02-.24.02-.36.02h-1.05s-.39-.02-.39-.02h-.4c-.17,0-.33,0-.5,0-.24,0-.47-.1-.72-.27-.34-.24-.55-.58-.67-1.07-.08-.35-.08-.71-.07-1.06v-.34c0-.27,0-.53.02-.8.02-.47.09-1.08.38-1.64.16-.3.36-.53.61-.69.19-.12.42-.18.73-.18,0,0,.29,0,.38,0h.17c.24,0,.35-.09.39-.31.08-.42.18-.91.37-1.38.39-.95.99-1.78,1.8-2.46.86-.72,1.87-1.23,3-1.51.61-.15,1.26-.22,2-.22h.48c.21.01.43.01.64.03.53.04,1.07.13,1.58.28.94.27,1.78.7,2.52,1.28,1.13.9,1.87,2.03,2.21,3.35.05.19.08.37.11.56l.03.2c.03.21.14.3.36.3l.7.02c.26,0,.5.1.72.29.31.26.51.6.66,1.11.11.39.16.82.15,1.34v.45c0,.35,0,.7-.02,1.04-.03.52-.18.94-.46,1.27-.26.3-.58.47-.96.53-.06,0-.12.01-.18.01h-.64c-.12,0-.27.04-.32.23l-.05.17c-.06.21-.12.43-.19.64-.25.75-.55,1.33-.96,1.83-.5.63-1.1,1.03-1.84,1.23-.29.08-.61.12-1.03.12h-.31c-.34,0-.67,0-1.01,0h0c-.19,0-.32.07-.42.21-.15.24-.37.39-.65.46-.19.05-.41.05-.59.06h-.22Z"/>
        </g>
      </g>
    </g>
  </g>
</svg>