<?xml version="1.0" encoding="UTF-8"?>
<svg id="Layer_2" data-name="Layer 2" xmlns="http://www.w3.org/2000/svg" viewBox="0 0 15.57 10.38">
  <defs>
    <style>
      .cls-1 {
        fill: #fff;
      }

      .cls-2 {
        fill: var(--brand-accent, #ff0096);
      }
    </style>
  </defs>
  <g id="ias">
    <g>
      <path class="cls-2" d="M7.79,0C3.49,0,0,4.15,0,5.19s3.49,5.19,7.79,5.19,7.79-4.15,7.79-5.19S12.09,0,7.79,0ZM12.53,7.51c-1.06.84-2.75,1.83-4.74,1.83s-3.68-1-4.74-1.83c-1.26-1-1.9-1.96-2.08-2.32.16-.36.81-1.32,2.08-2.32,1.06-.84,2.75-1.83,4.74-1.83s3.68,1,4.74,1.83c1.26,1,1.9,1.96,2.08,2.32-.16.36-.81,1.32-2.08,2.32Z"/>
      <path class="cls-2" d="M7.79,1.04c-1.89,0-3.44,1.57-3.44,3.5s1.54,3.5,3.44,3.5,3.44-1.57,3.44-3.5-1.54-3.5-3.44-3.5Z"/>
      <path class="cls-1" d="M5.29,5.19c-.46-1.99,1.47-3.92,3.31-3.24-1.64.44-2.74,1.46-3.31,3.24h0Z"/>
    </g>
  </g>
</svg>