<?xml version="1.0" encoding="UTF-8"?>
<svg id="Layer_2" data-name="Layer 2" xmlns="http://www.w3.org/2000/svg" xmlns:xlink="http://www.w3.org/1999/xlink" viewBox="0 0 123.05 23.69">
  <defs>
    <style>
      .cls-1 {
        fill: #ff0028;
      }

      .cls-2 {
        fill: url(#linear-gradient-2);
      }

      .cls-3 {
        fill: #005afa;
      }

      .cls-4 {
        fill: #006efa;
      }

      .cls-5 {
        fill: #00c8af;
      }

      .cls-6 {
        fill: #007dfa;
      }

      .cls-7 {
        fill: url(#linear-gradient);
      }

      .cls-8 {
        fill: #faaa46;
      }
    </style>
    <linearGradient id="linear-gradient" x1="-211.77" y1="1026.56" x2="-207.1" y2="1026.56" gradientTransform="translate(1051.8074 138.6378) rotate(85.4199)" gradientUnits="userSpaceOnUse">
      <stop offset="0" stop-color="#d0d0d0"/>
      <stop offset=".34" stop-color="#e1e1e1"/>
      <stop offset=".81" stop-color="#fff"/>
    </linearGradient>
    <linearGradient id="linear-gradient-2" x1="-211.21" y1="1026.56" x2="-207.67" y2="1026.56" gradientTransform="translate(1051.8074 138.6378) rotate(85.4199)" gradientUnits="userSpaceOnUse">
      <stop offset=".19" stop-color="#fff"/>
      <stop offset=".66" stop-color="#e1e1e1"/>
      <stop offset="1" stop-color="#d0d0d0"/>
    </linearGradient>
  </defs>
  <g id="Menu">
    <g>
      <g>
        <g>
          <polygon class="cls-8" points="12.91 9.3 6.46 8.01 0 6.73 5.34 10.56 10.68 14.39 9.94 11.04 12.91 9.3"/>
          <polygon class="cls-5" points="18.25 13.13 12.91 9.3 13.65 12.65 10.68 14.39 17.14 15.68 23.6 16.96 18.25 13.13"/>
        </g>
        <g>
          <polygon class="cls-1" points="15.63 6.48 16.93 0 13.1 5.37 9.26 10.74 12.61 9.98 14.34 12.95 15.63 6.48"/>
          <polygon class="cls-6" points="10.99 13.71 9.26 10.74 7.96 17.21 6.66 23.69 10.5 18.32 14.34 12.95 10.99 13.71"/>
        </g>
        <g>
          <path class="cls-7" d="M14.34,12.94c-.48,1.11-2,1.53-3.41.92-1.4-.6-2.16-2-1.68-3.11.48-1.11,2-1.53,3.41-.92,1.4.61,2.16,2,1.68,3.11Z"/>
          <path class="cls-2" d="M9.91,12.08c-.1-.35-.09-.71.05-1.03.19-.44.57-.75,1.07-.89.46-.12.97-.08,1.43.12.6.26,1.05.75,1.22,1.33.1.35.09.71-.05,1.03-.19.43-.57.75-1.07.89-.46.12-.97.08-1.43-.12-.6-.26-1.06-.75-1.22-1.33Z"/>
        </g>
      </g>
      <g>
        <path class="cls-4" d="M38.27,14.86c0,1.1-.44,1.95-1.33,2.57-.89.61-2.08.92-3.58.92-.77,0-1.48-.05-2.14-.16-.66-.1-1.2-.25-1.64-.43v-1.49c.46.19,1.04.35,1.72.5s1.4.23,2.13.23c1.03,0,1.8-.18,2.32-.54.52-.36.78-.84.78-1.46,0-.4-.1-.75-.29-1.02-.19-.28-.52-.53-.99-.77-.47-.24-1.12-.49-1.96-.75-1.17-.38-2.05-.85-2.65-1.4-.6-.56-.9-1.31-.9-2.27,0-.66.19-1.22.56-1.69s.89-.83,1.55-1.08c.66-.25,1.42-.38,2.28-.38.76,0,1.45.06,2.08.19.63.13,1.2.29,1.71.5l-.54,1.33c-.48-.18-.99-.34-1.55-.47-.56-.13-1.14-.19-1.74-.19-.86,0-1.51.16-1.95.49-.44.33-.65.77-.65,1.31,0,.42.1.76.29,1.04.19.28.51.53.94.75.44.22,1.03.46,1.77.71.81.27,1.49.55,2.05.86.56.31.98.67,1.27,1.1.29.43.43.97.43,1.61Z"/>
        <path class="cls-4" d="M52.64,8.71c1.17,0,2.04.27,2.62.81.58.54.87,1.41.87,2.61v6.05h-1.68v-5.98c0-1.47-.7-2.2-2.1-2.2-1,0-1.72.26-2.15.78-.43.52-.65,1.28-.65,2.27v5.13h-1.68v-5.98c0-1.47-.71-2.2-2.12-2.2-1.04,0-1.76.29-2.16.87-.4.58-.6,1.41-.6,2.5v4.82h-1.7v-9.29h1.37l.25,1.27h.1c.32-.49.75-.85,1.3-1.08s1.13-.36,1.74-.36c1.62,0,2.67.52,3.16,1.56h.1c.35-.53.82-.92,1.42-1.18.6-.25,1.23-.38,1.9-.38Z"/>
        <path class="cls-4" d="M63.74,8.73c1.26,0,2.19.25,2.79.75.6.5.91,1.29.91,2.38v6.33h-1.23l-.33-1.32h-.08c-.45.51-.92.88-1.42,1.13-.49.24-1.18.36-2.05.36-.94,0-1.71-.22-2.33-.67-.62-.44-.92-1.14-.92-2.09s.4-1.64,1.21-2.14c.81-.5,2.05-.78,3.74-.82l1.75-.05v-.56c0-.77-.19-1.31-.56-1.61-.37-.3-.9-.45-1.58-.45-.54,0-1.05.07-1.54.22s-.94.31-1.37.49l-.52-1.14c.45-.22.98-.41,1.6-.56.62-.16,1.26-.23,1.93-.23ZM64.24,13.68c-1.28.05-2.17.23-2.67.55-.49.32-.74.78-.74,1.37,0,.52.18.9.53,1.14s.81.36,1.36.36c.87,0,1.6-.22,2.18-.65.58-.43.87-1.1.87-2v-.83l-1.52.05Z"/>
        <path class="cls-4" d="M75.95,8.71c.19,0,.4,0,.63.03.22.02.42.04.59.08l-.21,1.4c-.17-.03-.35-.06-.55-.09s-.39-.03-.57-.03c-.53,0-1.02.13-1.48.39-.46.26-.83.62-1.11,1.09-.28.47-.41,1.01-.41,1.64v4.96h-1.7v-9.29h1.39l.19,1.7h.08c.33-.51.76-.95,1.29-1.32.53-.37,1.15-.55,1.87-.55Z"/>
        <path class="cls-4" d="M83.04,17.1c.26,0,.52-.02.79-.06.27-.04.49-.08.65-.13v1.16c-.18.08-.44.15-.77.2-.33.05-.66.08-.96.08-.54,0-1.04-.08-1.49-.25s-.83-.46-1.11-.88c-.28-.42-.42-1-.42-1.75v-5.41h-1.46v-.73l1.48-.61.67-1.98h1v2.13h2.99v1.18h-2.99v5.38c0,.57.15.99.45,1.26s.69.41,1.17.41Z"/>
        <path class="cls-3" d="M96.97,18.18l-1.48-3.55h-5.28l-1.46,3.55h-2.18l5.22-12.43h2.16l5.22,12.43h-2.2ZM93.54,9.54c-.04-.12-.11-.31-.2-.58-.1-.27-.19-.55-.28-.84s-.16-.52-.21-.69c-.06.24-.13.5-.21.77-.08.27-.15.52-.23.75-.08.23-.14.43-.19.59l-1.39,3.45h4.08l-1.37-3.45Z"/>
        <path class="cls-3" d="M106.47,8.66c1.25,0,2.25.4,3.01,1.21s1.14,2.01,1.14,3.61c0,1.06-.17,1.96-.52,2.69-.35.73-.83,1.27-1.46,1.64-.63.36-1.36.55-2.2.55-.53,0-.99-.06-1.39-.19-.4-.13-.74-.29-1.02-.49-.28-.2-.52-.4-.71-.62h-.12c.03.2.05.44.08.73.03.29.04.56.04.8v3.76h-2.04v-13.51h1.68l.27,1.25h.1c.21-.25.45-.49.73-.71.28-.22.62-.39,1.01-.52.39-.13.86-.19,1.42-.19ZM105.95,10.18c-.63,0-1.14.11-1.52.33-.39.22-.66.55-.84,1-.17.44-.27,1.01-.28,1.69v.28c0,.72.08,1.32.24,1.82.16.5.44.88.83,1.14.39.26.93.39,1.61.39.58,0,1.05-.14,1.42-.42.37-.28.64-.68.83-1.18.19-.5.28-1.09.28-1.76,0-1.02-.21-1.82-.63-2.4-.42-.58-1.06-.88-1.94-.88Z"/>
        <path class="cls-3" d="M118.91,8.66c1.25,0,2.25.4,3.01,1.21s1.14,2.01,1.14,3.61c0,1.06-.17,1.96-.52,2.69-.35.73-.83,1.27-1.46,1.64-.63.36-1.36.55-2.2.55-.53,0-.99-.06-1.39-.19-.4-.13-.74-.29-1.02-.49-.28-.2-.52-.4-.71-.62h-.12c.03.2.05.44.08.73.03.29.04.56.04.8v3.76h-2.04v-13.51h1.68l.27,1.25h.1c.21-.25.45-.49.73-.71.28-.22.62-.39,1.01-.52.39-.13.86-.19,1.42-.19ZM118.39,10.18c-.63,0-1.14.11-1.52.33-.39.22-.66.55-.84,1-.17.44-.27,1.01-.28,1.69v.28c0,.72.08,1.32.24,1.82.16.5.44.88.83,1.14.39.26.93.39,1.61.39.58,0,1.05-.14,1.42-.42.37-.28.64-.68.83-1.18.19-.5.28-1.09.28-1.76,0-1.02-.21-1.82-.63-2.4-.42-.58-1.06-.88-1.94-.88Z"/>
      </g>
    </g>
  </g>
</svg>