<?xml version="1.0" encoding="UTF-8"?>
<svg id="Layer_2" data-name="Layer 2" xmlns="http://www.w3.org/2000/svg" xmlns:xlink="http://www.w3.org/1999/xlink" viewBox="0 0 120 120">
  <defs>
    <style>
      .cls-1 { fill: url(#linear-gradient-2); }
      .cls-2 { fill: url(#linear-gradient-4); }
      .cls-3 { fill: url(#linear-gradient-3); }
      .cls-4 { fill: url(#linear-gradient-5); }
      .cls-5 { fill: url(#linear-gradient);   }
    </style>
    <linearGradient id="linear-gradient" x1="19.26" y1="-202.65" x2="65.24" y2="-250.11" gradientTransform="translate(211.53 279.91) rotate(-44.97)" gradientUnits="userSpaceOnUse">
      <stop offset="0"   stop-color="#f0047f"/>
      <stop offset=".18" stop-color="#ec0383"/>
      <stop offset=".36" stop-color="#e3038f"/>
      <stop offset=".54" stop-color="#d402a4"/>
      <stop offset=".73" stop-color="#bf01c1"/>
      <stop offset=".91" stop-color="#a400e6"/>
      <stop offset="1"   stop-color="#9600fa"/>
    </linearGradient>
    <linearGradient id="linear-gradient-2" x1="932.29" y1="109.12" x2="978.27" y2="61.66" gradientTransform="translate(774.8 -584.55) rotate(135.03)" xlink:href="#linear-gradient"/>
    <linearGradient id="linear-gradient-3" x1="60" y1="0" x2="60" y2="120" gradientUnits="userSpaceOnUse">
      <stop offset="0"   stop-color="#ff0064"/>
      <stop offset=".07" stop-color="#ff0070"/>
      <stop offset=".22" stop-color="#ff0085"/>
      <stop offset=".36" stop-color="#ff0091"/>
      <stop offset=".5"  stop-color="#ff0096"/>
      <stop offset=".64" stop-color="#ff0091"/>
      <stop offset=".78" stop-color="#ff0085"/>
      <stop offset=".93" stop-color="#ff0070"/>
      <stop offset="1"   stop-color="#ff0064"/>
    </linearGradient>
    <linearGradient id="linear-gradient-4" x1="120" y1="47.13" x2="68.36" y2="47.13" gradientUnits="userSpaceOnUse">
      <stop offset="0"   stop-color="#ff0096"/>
      <stop offset=".28" stop-color="#ff0091"/>
      <stop offset=".57" stop-color="#ff0085"/>
      <stop offset=".86" stop-color="#ff0070"/>
      <stop offset="1"   stop-color="#ff0064"/>
    </linearGradient>
    <linearGradient id="linear-gradient-5" x1="-48.02" y1="49.97" x2="-99.66" y2="49.97" gradientTransform="translate(-48.02 122.84) rotate(-180)" gradientUnits="userSpaceOnUse">
      <stop offset="0"   stop-color="#ff0096"/>
      <stop offset=".28" stop-color="#ff0091"/>
      <stop offset=".57" stop-color="#ff0085"/>
      <stop offset=".86" stop-color="#ff0070"/>
      <stop offset="1"   stop-color="#ff0064"/>
    </linearGradient>
  </defs>
  <g id="smart_erp" data-name="smart erp">
    <g>
      <path class="cls-5" d="M74.4,78.21c-7.9,7.87-8.23,20.42-1.03,28.71l14.95-14.91c7.9-7.87,8.23-20.42,1.03-28.71l-14.95,14.91Z"/>
      <path class="cls-1" d="M45.59,41.79c7.9-7.87,8.23-20.42,1.03-28.71l-14.95,14.91c-7.9,7.87-8.23,20.42-1.03,28.71l14.95-14.91Z"/>
      <path class="cls-3" d="M66.66,108.39s0,0-.01-.01l-2.65-2.69c-1.08-1.04-1.63-2.43-1.63-3.94v-19.67c0-3.35,1.31-6.49,3.67-8.85l10.83-10.93c.7-.68,1.08-1.6,1.08-2.58,0-.95-.38-1.87-1.08-2.58l-10.83-10.9c-2.36-2.37-3.67-5.54-3.67-8.91v-19.14c0-1.48.55-2.84,1.63-3.91l1.25-1.26h0s.7-.71.7-.71l.7-.7s.02-.03.03-.04l1.99-2.03c.28-.28.28-.74,0-1.02L60.5.21c-.28-.28-.73-.28-1.01,0l-8.18,8.32c-.28.28-.28.74,0,1.02l2.02,2.05s0,.01.01.01l.22.23h0s2.42,2.44,2.42,2.44c1.05,1.07,1.6,2.43,1.6,3.91v19.14c0,3.38-1.28,6.54-3.67,8.91l-10.83,10.9c-.7.71-1.05,1.63-1.05,2.58,0,.98.35,1.9,1.05,2.58l10.83,10.93c2.39,2.37,3.67,5.51,3.67,8.85v19.67c0,1.51-.55,2.9-1.6,3.94l-2.65,2.69s-.02.03-.04.04l-1.99,2.02c-.28.28-.28.74,0,1.02l8.17,8.32c.28.28.73.28,1.01,0l8.18-8.32c.28-.28.28-.74,0-1.02l-2.02-2.05ZM57.02,69.64l-6.9-6.96c-1.63-1.63-1.63-4.29,0-5.95l6.9-6.93c1.66-1.63,4.31-1.63,5.94,0l6.9,6.93c1.63,1.66,1.63,4.32,0,5.95l-6.9,6.96c-1.63,1.66-4.28,1.66-5.94,0Z"/>
      <path class="cls-2" d="M111.1,50.73l8.63,8.62c.36.36.36.95,0,1.31l-8.63,8.62-11.98,11.95c.18-1.23.28-2.58.28-3.86,0-7.71-3.33-14.65-8.64-19.45l-16.35-16.48c-3.9-3.94-6.04-9.2-6.04-14.75s1.39-9.75,4.96-13.63l37.77,37.69Z"/>
      <path class="cls-4" d="M8.9,69.27L.27,60.65c-.36-.36-.36-.95,0-1.31l8.63-8.62,11.98-11.95c-.18,1.23-.28,2.58-.28,3.86,0,7.71,3.33,14.65,8.64,19.45l16.35,16.48c3.9,3.94,6.04,9.2,6.04,14.75,0,5.34-1.39,9.75-4.96,13.63L8.9,69.27Z"/>
    </g>
  </g>
</svg>
