<?xml version="1.0" encoding="UTF-8"?>
<svg xmlns="http://www.w3.org/2000/svg" viewBox="0 0 28.15 28.15" aria-hidden="true">
  <defs>
    <style>
      .bg { fill: #f5f5ff; stroke: #f5f5ff; stroke-miterlimit: 10; stroke-width: .15px; }
      .i { fill: var(--brand-primary, #197dfa); }
    </style>
  </defs>
  <rect class="bg" x=".07" y=".07" width="28" height="28" rx="1"/>
  <g class="i">
    <ellipse cx="11.15" cy="18.35" rx="4.55" ry="1.35"/>
    <ellipse cx="12.35" cy="15.85" rx="4.35" ry="1.25"/>
    <ellipse cx="13.85" cy="13.55" rx="4.15" ry="1.15"/>
    <path d="M12.35 10.35h1.35c1.45 0 2.1.75 2.1 1.55 0 .85-.75 1.35-1.55 1.35h-.95c.95 0 1.55.55 1.55 1.45 0 .95-.8 1.65-2.05 1.65h-2.35v-6zm1 2.45h.45c.55 0 .85-.25.85-.65s-.3-.65-.85-.65h-.45v1.3zm0 2.55h.55c.7 0 1.05-.35 1.05-.85s-.35-.85-1.05-.85h-.55v1.7z"/>
  </g>
</svg>
