<?xml version="1.0" encoding="UTF-8"?>
<svg xmlns="http://www.w3.org/2000/svg" viewBox="0 0 28.15 28.15" aria-hidden="true">
  <defs>
    <style>
      .bg { fill: #f5f5ff; stroke: #f5f5ff; stroke-miterlimit: 10; stroke-width: .15px; }
      .i { fill: var(--brand-primary, #197dfa); }
    </style>
  </defs>
  <rect class="bg" x=".07" y=".07" width="28" height="28" rx="1"/>
  <g class="i">
    <path d="M14.08 5.4l1.05.55.2 1.15.95.7 1.15-.2.85.75-.2 1.15.7.95-.55 1.05.55 1.05-.55-.7.95.2 1.15-.85.75-1.15-.2-.95.7-.2 1.15-1.05.55-1.05-.55-.2-1.15-.95-.7-1.15.2-.85-.75.2-1.15-.7-.95.55-1.05z"/>
    <circle cx="14.08" cy="7.35" r="1.05"/>
    <path d="M8.85 10.1h10.45l-4.55 9.55h-1.35z"/>
    <path d="M12.1 18.35h3.95c1.35 0 2.45-1 2.45-2.25s-1.1-2.25-2.45-2.25h-1.55v4.5z"/>
    <path d="M13.35 15.55h1.1v.75c0 .55.45 1 1 1s1-.45 1-1v-1.65h-.95v.9c0 .15-.1.25-.25.25s-.25-.1-.25-.25v-.75z"/>
  </g>
</svg>
