<?xml version="1.0" encoding="UTF-8"?>
<svg xmlns="http://www.w3.org/2000/svg" viewBox="0 0 28.15 28.15" aria-hidden="true">
  <defs>
    <style>
      .bg { fill: #f5f5ff; stroke: #f5f5ff; stroke-miterlimit: 10; stroke-width: .15px; }
      .i { fill: var(--brand-primary, #197dfa); }
    </style>
  </defs>
  <rect class="bg" x=".07" y=".07" width="28" height="28" rx="1"/>
  <g class="i">
    <circle cx="8.35" cy="8.15" r="2.1"/>
    <path d="M5.85 20.1c.35-3.1 1.65-4.75 2.5-5.35.75-.55 1.55-.75 2.45-.75s1.7.2 2.45.75c.85.6 2.15 2.25 2.5 5.35z"/>
    <rect x="14.15" y="6.35" width="8.35" height="6.55" rx=".45"/>
    <path d="M15.55 11.15l2.35-2.65 1.85 1.55 2.55-3.1" fill="none" stroke="var(--brand-primary, #197dfa)" stroke-width="1.05" stroke-linecap="round" stroke-linejoin="round"/>
    <path d="M20.35 11.15l1.35 1.2 1.05-.9" fill="none" stroke="var(--brand-primary, #197dfa)" stroke-width=".95" stroke-linecap="round" stroke-linejoin="round"/>
    <rect x="14.15" y="13.55" width="8.35" height="7.35" rx=".35"/>
    <rect x="15.35" y="15.15" width="5.95" height=".75" rx=".2" opacity=".35"/>
    <rect x="15.35" y="16.65" width="4.25" height=".75" rx=".2" opacity=".35"/>
  </g>
</svg>
