<?xml version="1.0" encoding="UTF-8"?>
<svg xmlns="http://www.w3.org/2000/svg" viewBox="0 0 28.15 28.15" aria-hidden="true">
  <defs>
    <style>
      .bg { fill: #f5f5ff; stroke: #f5f5ff; stroke-miterlimit: 10; stroke-width: .15px; }
      .i { fill: var(--brand-primary, #197dfa); }
    </style>
  </defs>
  <rect class="bg" x=".07" y=".07" width="28" height="28" rx="1"/>
  <g class="i">
    <path d="M14.08 6.15l1.35.7.25 1.5 1.25.95 1.5-.25 1.1.95-.25 1.5.95 1.25-.7 1.35.7 1.35-.7-.95 1.25.25 1.5-1.1.95-1.5-.25-1.25.95-.25 1.5-1.35.7-1.35-.7-1.25-.95-1.5.25-1.1-.95-.25-1.5-.95-1.25.7-1.35z"/>
    <circle cx="14.08" cy="14.08" r="4.15"/>
    <circle cx="14.08" cy="14.08" r="1.55" fill="#f5f5ff"/>
  </g>
</svg>
