<?xml version="1.0" encoding="UTF-8"?>
<svg xmlns="http://www.w3.org/2000/svg" viewBox="0 0 28.15 28.15" aria-hidden="true">
  <defs>
    <style>
      .bg { fill: #fafcff; stroke: #d2d2ff; stroke-miterlimit: 10; stroke-width: .15px; }
      .i { fill: var(--brand-primary, #197dfa); }
    </style>
  </defs>
  <rect class="bg" x=".07" y=".07" width="28" height="28" rx="1"/>
  <g class="i">
    <path d="M14.08 6.55l1.2.65.2 1.35 1.15.85 1.35-.2 1 .85-.2 1.35.85 1.15-.65 1.2.65 1.2-.65-.85 1.15.2 1.35-1 .85-1.35-.2-1.15.85-.2 1.35-1.2.65-1.2-.65-1.15-.85-1.35.2-1-.85-.2-1.35-.85-1.15.65-1.2z"/>
    <circle cx="14.08" cy="14.08" r="3.35"/>
    <circle cx="14.08" cy="14.08" r="1.35" fill="#fafcff"/>
  </g>
</svg>
