<?xml version="1.0" encoding="UTF-8"?>
<svg xmlns="http://www.w3.org/2000/svg" viewBox="0 0 44.15 40.07" aria-hidden="true">
  <g fill="var(--brand-primary, #0f7c94)">
    <path d="M20.69 29.04c-.41 0-.74-.33-.75-.74v-1.16c-.54-.13-1-.32-1.49-.59h-.12s-.65.73-.65.73c-.14.14-.33.22-.54.22s-.38-.08-.52-.21l-1.89-1.86c-.14-.14-.22-.33-.23-.53 0-.2.08-.39.22-.53l.81-.83c-.28-.47-.47-.92-.62-1.47l-.08-.08-.98.06c-.41 0-.75-.33-.76-.74l-.02-2.64c0-.2.08-.39.22-.53.14-.14.33-.22.53-.22h1.16c.13-.54.32-1 .59-1.49v-.12s-.73-.65-.73-.65c-.29-.29-.3-.77 0-1.06l1.85-1.89c.14-.14.33-.22.54-.22s.38.08.52.21l.83.81c.47-.28.92-.47 1.47-.63l.08-.08-.06-.98c0-.2.08-.39.21-.53.14-.14.33-.22.53-.22l2.64-.02c.38.04.75.3.76.74v1.16c.54.14 1 .32 1.49.59h.12s.65-.73.65-.73c.14-.14.33-.22.54-.22s.38.08.53.21l1.88 1.86c.14.14.22.33.22.52 0 .2-.08.39-.22.53l-.81.83c.28.47.47.92.62 1.47l.08.08.98-.05c.22 0 .39.08.53.21.14.14.22.33.23.53l.02 2.64c0 .2-.08.39-.22.53-.14.14-.33.22-.53.22h-1.16c-.13.54-.32 1-.59 1.49v.12s.73.65.73.65c.14.14.22.33.22.53 0 .2-.07.39-.22.53l-1.85 1.89c-.14.14-.33.22-.54.22s-.38-.08-.52-.21l-.83-.81c-.47.28-.92.47-1.47.63l-.08.08.05.98c0 .2-.08.39-.21.53-.14.14-.33.22-.53.23l-2.64.02z"/>
    <path d="M22.07 23.92c-1.03 0-2-.39-2.73-1.11-.74-.73-1.15-1.7-1.16-2.74 0-1.04.39-2.02 1.11-2.76.73-.75 1.72-1.16 2.77-1.16s2 .39 2.73 1.11c.74.73 1.15 1.7 1.16 2.74 0 1.04-.39 2.02-1.11 2.76-.73.75-1.72 1.16-2.77 1.16zm-.02-6.84c-.79 0-1.53.32-2.08.89-.55.56-.86 1.31-.85 2.1 0 .79.32 1.53.88 2.08.56.55 1.28.84 2.1.85.79 0 1.53-.32 2.09-.89 1.14-1.16 1.13-3.04-.04-4.19-.54-.53-1.22-.81-2.1-.85z"/>
  </g>
</svg>
